<svg xmlns="http://www.w3.org/2000/svg" viewBox="0 0 32 32"><g id="constellation"><path d="M27,24a3,3,0,0,0-2.82,2H16.82a3.08,3.08,0,0,0-1.35-1.6L19.61,17A2.58,2.58,0,0,0,20,17a3.27,3.27,0,0,0,.44,0l3.73,5.59A1,1,0,0,0,25,23a.94.94,0,0,0,.55-.17,1,1,0,0,0,.28-1.38L22.21,16A2.94,2.94,0,0,0,23,14a3,3,0,0,0-3-3,3,3,0,0,0-2,.8L8,5.42A2.85,2.85,0,0,0,8,5,3,3,0,1,0,5,8a3,3,0,0,0,2-.8l10,6.38A2.85,2.85,0,0,0,17,14a3,3,0,0,0,.83,2.05l-4.46,8A3,3,0,0,0,11,27a1,1,0,0,0,2,0,1,1,0,1,1,1,1,1,1,0,0,0,0,2,3,3,0,0,0,2.82-2h7.36A3,3,0,1,0,27,24ZM20,13a1,1,0,1,1-1,1A1,1,0,0,1,20,13ZM5,6A1,1,0,1,1,6,5,1,1,0,0,1,5,6ZM27,28a1,1,0,1,1,1-1A1,1,0,0,1,27,28Z"/><path d="M7,26H6V25a1,1,0,0,0-2,0v1H3a1,1,0,0,0,0,2H4v1a1,1,0,0,0,2,0V28H7a1,1,0,0,0,0-2Z"/><path d="M25,8h1V9a1,1,0,0,0,2,0V8h1a1,1,0,0,0,0-2H28V5a1,1,0,0,0-2,0V6H25a1,1,0,0,0,0,2Z"/><path d="M12,17V16h1a1,1,0,0,0,0-2H12V13a1,1,0,0,0-2,0v1H9a1,1,0,0,0,0,2h1v1a1,1,0,0,0,2,0Z"/><path d="M7,19H7a1,1,0,1,0,1,1A1,1,0,0,0,7,19Z"/><path d="M28,15h0a1,1,0,1,0,1,1A1,1,0,0,0,28,15Z"/><path d="M18,7a1,1,0,0,0,0-2h0a1,1,0,1,0,0,2Z"/><path d="M5,13a1,1,0,0,0,0-2H5a1,1,0,0,0,0,2Z"/></g></svg>