<?xml version="1.0" encoding="utf-8"?>
<!-- Generator: Adobe Illustrator 16.0.0, SVG Export Plug-In . SVG Version: 6.00 Build 0)  -->
<!DOCTYPE svg PUBLIC "-//W3C//DTD SVG 1.1//EN" "http://www.w3.org/Graphics/SVG/1.1/DTD/svg11.dtd">
<svg version="1.1" id="Layer_1" xmlns="http://www.w3.org/2000/svg" xmlns:xlink="http://www.w3.org/1999/xlink" x="0px" y="0px"
	 width="128px" height="128px" viewBox="0 0 128 128" enable-background="new 0 0 128 128" xml:space="preserve">
<g>
	<g>
		<g>
			<polygon fill="#282D33" points="103.771,118.104 0.088,118.104 0.088,46.789 12.265,46.789 12.265,50.79 4.088,50.79 
				4.088,114.104 99.771,114.104 99.771,78.474 103.771,78.474 			"/>
		</g>
		<g>
			<g>
				
					<rect x="15.384" y="78.011" transform="matrix(0.7437 0.6685 -0.6685 0.7437 71.497 14.0791)" fill="#282D33" width="4.001" height="44.565"/>
			</g>
			<g>
				
					<rect x="64.193" y="98.292" transform="matrix(0.6683 0.7439 -0.7439 0.6683 103.3004 -31.0604)" fill="#282D33" width="44.566" height="4.003"/>
			</g>
		</g>
		<g>
			<polygon fill="#282D33" points="101.771,54.965 101.765,52.97 100.441,51.469 100.453,51.459 101.765,52.958 101.759,50.964 
				103.088,54.471 101.771,52.977 			"/>
		</g>
		<g>
			<path fill="#282D33" d="M51.874,104.535c-1.96,0-3.794-0.783-5.165-2.204L25.48,80.276c-1.348-1.406-2.693-2.805-3.719-3.863
				L0.581,54.398l0.417-0.4l-0.014-0.014l-0.413,0.404l0.237-0.577L0,53.011l1.155-0.046H0v-4.176l2-2h57.697v4H4v1.393
				l20.64,21.452c1.024,1.058,2.375,2.461,3.726,3.87L49.59,99.556c0.608,0.631,1.42,0.979,2.284,0.979c0.001,0,0.001,0,0.002,0
				c0.862,0,1.672-0.348,2.279-0.979l21.227-22.054c1.35-1.406,2.698-2.811,3.725-3.871l5.462-5.679l2.883,2.773l-5.466,5.683
				c-1.028,1.063-2.372,2.462-3.719,3.866l-21.229,22.055c-1.368,1.422-3.201,2.205-5.16,2.205
				C51.876,104.534,51.875,104.535,51.874,104.535z"/>
		</g>
	</g>
	<g>
		<path fill="#282D33" d="M64.932,79.542l0.045-36.3c-0.023-0.47-0.045-1.041-0.045-1.616c0-17.554,14.146-31.834,31.535-31.834
			c17.387,0,31.533,14.28,31.533,31.833c0,17.553-14.146,31.835-31.533,31.836c-6.981,0-13.746-2.341-19.249-6.627L64.932,79.542z
			 M96.467,13.793c-15.183,0-27.534,12.486-27.534,27.833c0,0.515,0.02,1.025,0.043,1.532l-0.043,26.489l8.023-8.299l1.434,1.262
			c5.014,4.417,11.434,6.849,18.077,6.849c15.182-0.001,27.532-12.488,27.532-27.835C123.999,26.278,111.648,13.793,96.467,13.793z"
			/>
	</g>
	<g>
		<g>
			<path fill="#282D33" d="M96.467,60.834L81.494,45.711c-4.203-4.247-4.203-11.16,0-15.41l0.15-0.148
				c2.026-2.048,4.746-3.186,7.64-3.186c2.675,0,5.201,0.973,7.182,2.751c1.981-1.779,4.508-2.751,7.182-2.751
				c2.895,0,5.613,1.138,7.658,3.204l0.127,0.128c4.208,4.252,4.208,11.166,0.001,15.413L96.467,60.834z M89.284,30.969
				c-1.817,0-3.527,0.716-4.813,2.017l-0.15,0.148c-2.65,2.68-2.65,7.068,0.019,9.764l12.128,12.25l12.123-12.25
				c2.672-2.696,2.671-7.084,0-9.782l-0.127-0.128c-1.288-1.302-2.998-2.019-4.815-2.019c-1.816,0-3.525,0.716-4.813,2.017
				l-2.367,2.394l-2.37-2.394C92.811,31.685,91.101,30.969,89.284,30.969z"/>
		</g>
	</g>
</g>
</svg>
