<?xml version="1.0" encoding="UTF-8"?>
<svg version="1.1" xmlns="http://www.w3.org/2000/svg" width="354" height="116">
<path d="M0 0 C3.07680702 1.84696582 5.30553294 4.00206894 7.7265625 6.63671875 C8.38011719 6.02183594 8.38011719 6.02183594 9.046875 5.39453125 C9.64242187 4.85570312 10.23796875 4.316875 10.8515625 3.76171875 C11.43164062 3.22804688 12.01171875 2.694375 12.609375 2.14453125 C18.86393567 -2.30982377 26.3719665 -2.09874085 33.7265625 -1.36328125 C38.77019004 0.15607239 41.80335528 2.25030352 44.7265625 6.63671875 C46.76967351 13.01844684 47.04731196 19.71218504 47.140625 26.36328125 C47.15999115 27.23697357 47.1793573 28.11066589 47.1993103 29.01083374 C47.25838514 31.76103405 47.30519862 34.51127788 47.3515625 37.26171875 C47.38980888 39.14324593 47.42886431 41.02475685 47.46875 42.90625 C47.56402583 47.48293851 47.64831757 52.05970869 47.7265625 56.63671875 C49.3765625 57.29671875 51.0265625 57.95671875 52.7265625 58.63671875 C52.7265625 59.62671875 52.7265625 60.61671875 52.7265625 61.63671875 C43.8165625 61.63671875 34.9065625 61.63671875 25.7265625 61.63671875 C25.7265625 60.64671875 25.7265625 59.65671875 25.7265625 58.63671875 C26.3659375 58.34796875 27.0053125 58.05921875 27.6640625 57.76171875 C29.87862329 56.80848424 29.87862329 56.80848424 30.7265625 54.63671875 C30.85034873 51.65628384 30.9150314 48.70020706 30.9296875 45.71875 C30.93538757 44.82814377 30.94108765 43.93753754 30.94696045 43.01994324 C30.95641832 41.13106476 30.96294755 39.24216972 30.96679688 37.35327148 C30.97646553 34.47805451 31.00746585 31.60356362 31.0390625 28.72851562 C31.04559635 26.89193132 31.05084532 25.05534191 31.0546875 23.21875 C31.0732077 21.93711723 31.0732077 21.93711723 31.09210205 20.6295929 C31.06945303 14.48741437 30.27957913 9.36580549 25.9140625 4.69921875 C22.86439928 3.21795376 21.08632474 3.09915679 17.7265625 3.63671875 C13.99937299 6.21708072 11.40714218 8.4175206 9.7265625 12.63671875 C9.44039309 14.85590314 9.44039309 14.85590314 9.49951172 17.22167969 C9.49966278 18.1223114 9.49981384 19.02294312 9.49996948 19.9508667 C9.51029205 20.91454163 9.52061462 21.87821655 9.53125 22.87109375 C9.53549484 24.3608371 9.53549484 24.3608371 9.53982544 25.88067627 C9.55101107 29.04948019 9.57611288 32.2180004 9.6015625 35.38671875 C9.61159438 37.53645425 9.62071987 39.68619418 9.62890625 41.8359375 C9.65094509 47.10296121 9.68440666 52.36981971 9.7265625 57.63671875 C11.3765625 57.96671875 13.0265625 58.29671875 14.7265625 58.63671875 C14.7265625 59.62671875 14.7265625 60.61671875 14.7265625 61.63671875 C5.8165625 61.63671875 -3.0934375 61.63671875 -12.2734375 61.63671875 C-12.2734375 60.64671875 -12.2734375 59.65671875 -12.2734375 58.63671875 C-10.6234375 58.30671875 -8.9734375 57.97671875 -7.2734375 57.63671875 C-7.17182461 51.05319434 -7.1018828 44.46987298 -7.05371094 37.88574219 C-7.03362434 35.64705854 -7.0063497 33.40842717 -6.97167969 31.16992188 C-6.92303286 27.94778526 -6.90043876 24.72634374 -6.8828125 21.50390625 C-6.86216736 20.50680634 -6.84152222 19.50970642 -6.82025146 18.48239136 C-6.81834829 12.55775819 -7.28573007 9.130092 -11.2734375 4.63671875 C-14.26572921 3.34130803 -17.04531766 3.30755447 -20.2734375 3.63671875 C-24.73839791 5.86919896 -26.00710599 8.80907044 -27.65585327 13.40689087 C-28.66663702 17.05639111 -28.68281855 20.56999467 -28.63671875 24.3359375 C-28.63721725 25.13401321 -28.63771576 25.93208893 -28.63822937 26.75434875 C-28.63590538 28.42748528 -28.62627692 30.10062642 -28.60961914 31.77368164 C-28.58590281 34.32795504 -28.58908626 36.88119031 -28.59570312 39.43554688 C-28.5901291 41.0690166 -28.58302096 42.70248198 -28.57421875 44.3359375 C-28.57513016 45.09436447 -28.57604156 45.85279144 -28.57698059 46.63420105 C-28.52267059 50.70555746 -28.24989846 54.03161585 -26.2734375 57.63671875 C-24.23238111 58.52365178 -24.23238111 58.52365178 -22.2734375 58.63671875 C-22.2734375 59.62671875 -22.2734375 60.61671875 -22.2734375 61.63671875 C-40.7534375 61.63671875 -59.2334375 61.63671875 -78.2734375 61.63671875 C-78.2734375 60.64671875 -78.2734375 59.65671875 -78.2734375 58.63671875 C-77.4690625 58.36859375 -76.6646875 58.10046875 -75.8359375 57.82421875 C-74.5675 57.23640625 -74.5675 57.23640625 -73.2734375 56.63671875 C-71.9944358 52.79971364 -72.11100933 49.17074724 -72.10546875 45.171875 C-72.10214035 44.34215683 -72.09881195 43.51243866 -72.09538269 42.65757751 C-72.09032189 40.90331578 -72.0879741 39.14904442 -72.08813477 37.39477539 C-72.08594865 34.71289191 -72.0677852 32.03142006 -72.04882812 29.34960938 C-72.04589395 27.64453266 -72.04390932 25.93945398 -72.04296875 24.234375 C-72.03578323 23.43322769 -72.02859772 22.63208038 -72.02119446 21.80665588 C-72.00247586 16.39565496 -72.00247586 16.39565496 -74.2734375 11.63671875 C-76.3070323 10.36867309 -76.3070323 10.36867309 -78.2734375 9.63671875 C-78.05297852 7.74316406 -78.05297852 7.74316406 -77.2734375 5.63671875 C-75.32397461 4.63183594 -75.32397461 4.63183594 -72.80078125 3.93359375 C-71.90166016 3.67578125 -71.00253906 3.41796875 -70.07617188 3.15234375 C-69.13064453 2.8996875 -68.18511719 2.64703125 -67.2109375 2.38671875 C-66.26154297 2.11859375 -65.31214844 1.85046875 -64.33398438 1.57421875 C-61.98429334 0.91299916 -59.63131137 0.26801536 -57.2734375 -0.36328125 C-57.26130722 0.63816925 -57.26130722 0.63816925 -57.24893188 1.65985107 C-57.162936 8.60285634 -57.06343428 15.54557446 -56.95605469 22.48828125 C-56.9177498 25.08002911 -56.88289963 27.67183041 -56.8515625 30.26367188 C-56.80594533 33.98717358 -56.7479444 37.7103069 -56.6875 41.43359375 C-56.67594879 42.59413269 -56.66439758 43.75467163 -56.65249634 44.95037842 C-56.63262665 46.0311969 -56.61275696 47.11201538 -56.59228516 48.22558594 C-56.57896149 49.17600769 -56.56563782 50.12642944 -56.5519104 51.10565186 C-56.26405706 53.72197851 -55.60124132 55.38530262 -54.2734375 57.63671875 C-52.9946875 57.69859375 -51.7159375 57.76046875 -50.3984375 57.82421875 C-49.67914063 57.85902344 -48.95984375 57.89382812 -48.21875 57.9296875 C-47.57679687 57.83300781 -46.93484375 57.73632812 -46.2734375 57.63671875 C-44.19805126 54.52363939 -44.02571599 53.8732368 -44.04638672 50.34887695 C-44.04661331 49.05787834 -44.04661331 49.05787834 -44.04684448 47.74079895 C-44.05716705 46.8157103 -44.06748962 45.89062164 -44.078125 44.9375 C-44.0809549 43.98731491 -44.08378479 43.03712982 -44.08670044 42.05815125 C-44.09790035 39.0217126 -44.12300462 35.98556833 -44.1484375 32.94921875 C-44.15846754 30.8912803 -44.16759335 28.83333723 -44.17578125 26.77539062 C-44.19783908 21.72905315 -44.23236768 16.68293587 -44.2734375 11.63671875 C-46.2534375 10.97671875 -48.2334375 10.31671875 -50.2734375 9.63671875 C-50.05297852 7.74316406 -50.05297852 7.74316406 -49.2734375 5.63671875 C-47.32397461 4.63183594 -47.32397461 4.63183594 -44.80078125 3.93359375 C-43.90166016 3.67578125 -43.00253906 3.41796875 -42.07617188 3.15234375 C-40.65788086 2.77335937 -40.65788086 2.77335937 -39.2109375 2.38671875 C-38.26154297 2.11859375 -37.31214844 1.85046875 -36.33398438 1.57421875 C-33.98429334 0.91299916 -31.63131137 0.26801536 -29.2734375 -0.36328125 C-28.7784375 1.61671875 -28.7784375 1.61671875 -28.2734375 3.63671875 C-27.72558594 3.27578125 -27.17773438 2.91484375 -26.61328125 2.54296875 C-18.51853169 -2.19542124 -8.85388477 -3.68735774 0 0 Z " fill="#FFFFFF" transform="translate(141.2734375,41.36328125)"/>
<path d="M0 0 C6.93 0 13.86 0 21 0 C21.01458252 1.45817139 21.02916504 2.91634277 21.04418945 4.41870117 C21.10219647 9.83284937 21.17942995 15.24658273 21.26245117 20.66040039 C21.29568906 23.00277978 21.3237245 25.34523904 21.34643555 27.68774414 C21.38000168 31.05649833 21.43232019 34.42452131 21.48828125 37.79296875 C21.49467117 38.83897751 21.5010611 39.88498627 21.50764465 40.96269226 C21.57836695 47.9974983 21.57836695 47.9974983 25 54 C28.46015135 55.73007568 32.21672555 55.4835273 36 55 C39.49890004 52.88608123 40.70578686 51.88263941 42 48 C42.08630926 46.54218278 42.11770981 45.08072526 42.11352539 43.62036133 C42.11344986 42.73967484 42.11337433 41.85898834 42.11329651 40.95161438 C42.10813522 40.00465195 42.10297394 39.05768951 42.09765625 38.08203125 C42.0962413 37.10965012 42.09482635 36.13726898 42.09336853 35.13542175 C42.08776817 32.02774996 42.07521562 28.92015004 42.0625 25.8125 C42.05748505 23.70638125 42.05292213 21.60026137 42.04882812 19.49414062 C42.03779862 14.32939936 42.02053375 9.16471187 42 4 C39.525 3.505 39.525 3.505 37 3 C37 2.01 37 1.02 37 0 C43.93 0 50.86 0 58 0 C58.04898438 3.34640625 58.09796875 6.6928125 58.1484375 10.140625 C58.20244333 13.38074221 58.25975245 16.62078531 58.31738281 19.86083984 C58.35567157 22.11306236 58.39052461 24.365346 58.421875 26.61767578 C58.46752737 29.85471447 58.52552215 33.09133236 58.5859375 36.328125 C58.59748871 37.33554749 58.60903992 38.34296997 58.62094116 39.38092041 C58.64081085 40.32159363 58.66068054 41.26226685 58.68115234 42.23144531 C58.69447601 43.05751282 58.70779968 43.88358032 58.7215271 44.73468018 C59.03258024 47.26503354 59.59392529 48.87510318 61 51 C61.99 51.33 62.98 51.66 64 52 C64 53.32 64 54.64 64 56 C61.06497405 57.00736628 58.12660539 58.00460504 55.1875 59 C54.35412109 59.28617188 53.52074219 59.57234375 52.66210938 59.8671875 C51.85966797 60.13789062 51.05722656 60.40859375 50.23046875 60.6875 C49.12288208 61.06455078 49.12288208 61.06455078 47.99291992 61.44921875 C46 62 46 62 43 62 C42.505 59.03 42.505 59.03 42 56 C41.278125 56.61875 40.55625 57.2375 39.8125 57.875 C32.89857547 63.09885409 25.30129764 62.72613943 17 62 C13.00050251 60.81043885 10.68787872 58.89424234 8.125 55.5625 C5.61846317 49.8531661 5.79303943 44.02052411 5.68359375 37.88671875 C5.6524221 36.43239189 5.6524221 36.43239189 5.62062073 34.94868469 C5.55541059 31.86169293 5.4963732 28.77461848 5.4375 25.6875 C5.39428763 23.59048636 5.35067248 21.49348097 5.30664062 19.39648438 C5.19975849 14.26440693 5.09841104 9.13224659 5 4 C3.35 3.67 1.7 3.34 0 3 C0 2.01 0 1.02 0 0 Z " fill="#FFFFFF" transform="translate(195,41)"/>
<path d="M0 0 C3.52914121 2.91421509 6.07651821 5.86627338 7.546875 10.27734375 C7.66010325 11.70377515 7.72282976 13.13456865 7.75219727 14.56518555 C7.7821151 15.85618416 7.7821151 15.85618416 7.81263733 17.17326355 C7.82934982 18.0983522 7.84606232 19.02344086 7.86328125 19.9765625 C7.88406235 20.92674759 7.90484344 21.87693268 7.92625427 22.85591125 C7.99165552 25.89214831 8.05059104 28.92847206 8.109375 31.96484375 C8.15256917 34.02279544 8.19618376 36.08073834 8.24023438 38.13867188 C8.34732731 43.18480691 8.44862146 48.23102918 8.546875 53.27734375 C10.526875 53.93734375 12.506875 54.59734375 14.546875 55.27734375 C13.58941512 57.88859797 12.89065812 59.06899034 10.484375 60.52734375 C6.44728384 61.55809043 2.68173981 61.92037878 -1.453125 61.27734375 C-4.515625 59.27734375 -4.515625 59.27734375 -6.453125 57.27734375 C-7.21625 57.91671875 -7.979375 58.55609375 -8.765625 59.21484375 C-14.00163657 62.66445138 -20.07586354 62.69950143 -26.140625 61.94140625 C-32.83463956 60.36994552 -36.69729195 56.97426483 -40.453125 51.27734375 C-42.37035047 45.52566735 -42.37413069 39.49740018 -39.765625 33.96484375 C-36.35832491 28.05567995 -32.09734314 24.14442055 -25.453125 22.27734375 C-18.81761351 20.96542073 -13.92608148 21.49951159 -7.453125 23.27734375 C-7.54018753 20.35924794 -7.64707234 17.44418664 -7.765625 14.52734375 C-7.79946289 13.28984375 -7.79946289 13.28984375 -7.83398438 12.02734375 C-7.99207144 8.46319904 -8.11507827 5.91069568 -9.8125 2.73046875 C-11.46480071 1.00935617 -11.46480071 1.00935617 -14.390625 0.77734375 C-17.44556618 1.07847721 -17.44556618 1.07847721 -19.703125 2.65234375 C-21.56370131 5.44320821 -21.87162378 7.07823056 -22.390625 10.33984375 C-23.1972103 15.01390215 -23.1972103 15.01390215 -25.578125 17.46484375 C-29.6762719 18.6230157 -32.2864886 18.23362096 -36.453125 17.27734375 C-38.453125 14.27734375 -38.453125 14.27734375 -38.421875 12.19140625 C-37.55090954 7.93819159 -36.82187941 5.68121763 -33.828125 2.40234375 C-24.44464113 -3.50577572 -10.06207955 -6.25540786 0 0 Z M-20.453125 28.27734375 C-24.47740543 32.49937752 -26.19151404 37.2778178 -26.51953125 43.04296875 C-26.36569096 48.21924193 -25.38161477 52.03935739 -22.203125 56.27734375 C-19.6021962 58.48231665 -19.6021962 58.48231665 -16.453125 58.77734375 C-13.12351479 58.22240872 -11.15220583 57.28237522 -8.453125 55.27734375 C-7.07003719 52.51116812 -7.34102304 50.26716375 -7.35546875 47.17578125 C-7.36030273 45.35820313 -7.36030273 45.35820313 -7.36523438 43.50390625 C-7.37361328 42.23289062 -7.38199219 40.961875 -7.390625 39.65234375 C-7.39513672 38.37359375 -7.39964844 37.09484375 -7.40429688 35.77734375 C-7.41611297 32.61063083 -7.43258685 29.44401019 -7.453125 26.27734375 C-12.66704304 25.13975187 -15.86115244 25.42939309 -20.453125 28.27734375 Z " fill="#FFFFFF" transform="translate(330.453125,42.72265625)"/>
<path d="M0 0 C3.1609478 1.83578122 5.03442824 3.05133341 7.03125 6.1796875 C7.42383807 9.88571889 7.32366878 13.46921804 7.03125 17.1796875 C5.234375 16.9765625 5.234375 16.9765625 3.03125 16.1796875 C1.390625 14.0703125 1.390625 14.0703125 -0.21875 11.4296875 C-3.45251466 6.60667953 -6.50119243 3.32150631 -11.96875 1.1796875 C-16.07429852 0.56385522 -17.9450263 0.49720503 -21.40625 2.8046875 C-23.46504933 5.93406249 -23.55939006 7.48818713 -22.96875 11.1796875 C-19.59210066 18.22660786 -13.15156483 21.3038984 -6.66796875 25.125 C5.66074207 32.43867164 5.66074207 32.43867164 9.03125 39.1796875 C9.56559333 44.05009559 9.57742022 48.02180662 7.46875 52.4921875 C1.39361459 59.19041372 -4.46690011 61.69844822 -13.44921875 62.36328125 C-23.98416071 62.64094639 -31.21670116 59.99002472 -39.96875 54.1796875 C-39.82670259 52.59601003 -39.67994847 51.01275432 -39.53125 49.4296875 C-39.40943359 48.10710937 -39.40943359 48.10710937 -39.28515625 46.7578125 C-39.00636535 44.48618298 -38.58084423 42.38116927 -37.96875 40.1796875 C-36.97875 40.1796875 -35.98875 40.1796875 -34.96875 40.1796875 C-34.63875 41.3553125 -34.30875 42.5309375 -33.96875 43.7421875 C-31.58864755 50.07415817 -26.40432475 54.17105901 -20.46875 57.1796875 C-15.94574524 58.47197457 -13.54299008 58.30450064 -8.96875 57.1796875 C-6.2972096 55.67689574 -6.2972096 55.67689574 -4.96875 53.1796875 C-4.57441976 50.19756736 -4.57441976 50.19756736 -5.96875 47.1796875 C-10.17376587 42.67431335 -15.13879328 39.8331109 -20.40625 36.7421875 C-36.29316303 27.37851956 -36.29316303 27.37851956 -38.6328125 18.4453125 C-39.38043812 13.4031862 -38.64176677 9.57956239 -36.40625 4.9296875 C-27.70742973 -4.88436614 -11.26519795 -5.44484568 0 0 Z " fill="#FFFFFF" transform="translate(51.96875,42.8203125)"/>
<path d="M0 0 C0.33 29.37 0.66 58.74 1 89 C2.65 89.33 4.3 89.66 6 90 C6 90.99 6 91.98 6 93 C-3.24 93 -12.48 93 -22 93 C-21 90 -21 90 -19 88.9375 C-18.34 88.628125 -17.68 88.31875 -17 88 C-15.52244212 85.04488423 -15.87264529 82.40162218 -15.87060547 79.10351562 C-15.86885315 78.39442551 -15.86710083 77.68533539 -15.86529541 76.95475769 C-15.86088554 74.60523041 -15.86381185 72.25577808 -15.8671875 69.90625 C-15.86651421 68.27722153 -15.86554398 66.64819316 -15.86428833 65.01916504 C-15.86281253 61.60277349 -15.86496214 58.18640805 -15.86962891 54.77001953 C-15.87532613 50.38488943 -15.87204649 45.99982054 -15.86605644 41.61469269 C-15.86244766 38.25017839 -15.86359088 34.88567867 -15.86618423 31.52116394 C-15.86685262 29.90398654 -15.86602814 28.28680783 -15.86370468 26.66963196 C-15.86117298 24.4118803 -15.86502608 22.15422857 -15.87060547 19.89648438 C-15.87140106 18.61012085 -15.87219666 17.32375732 -15.87301636 15.99841309 C-15.79208004 13.07503345 -15.79208004 13.07503345 -17 11 C-18.64363134 10.27840576 -20.31050386 9.60648579 -22 9 C-22 8.01 -22 7.02 -22 6 C-19.08666921 4.99009308 -16.16884681 3.99384048 -13.25 3 C-12.0125 2.57074219 -12.0125 2.57074219 -10.75 2.1328125 C-9.95078125 1.86210937 -9.1515625 1.59140625 -8.328125 1.3125 C-7.5949707 1.06113281 -6.86181641 0.80976563 -6.10644531 0.55078125 C-4 0 -4 0 0 0 Z " fill="#FFFFFF" transform="translate(281,10)"/>
<path d="M0 0 C2.58861097 2.13560405 3.71069819 3.63614862 4.41015625 6.93359375 C4.69743765 10.83030806 4.22061268 12.65840618 2.0625 16 C-2.04057096 18.67955655 -5.22693618 18.93676954 -10 18 C-12.74337994 16.35397204 -13.64802249 15.1790016 -14.55859375 12.12890625 C-15.20880449 8.58291159 -15.20684731 6.50078823 -13.8125 3.125 C-9.84148229 -1.53067593 -5.69587772 -1.77412585 0 0 Z " fill="#FFFFFF" transform="translate(80,17)"/>
</svg>
